<svg width="100" height="100" viewBox="0 0 100 100" xmlns="http://www.w3.org/2000/svg">
  <defs>
    <pattern id="academic-pattern" x="0" y="0" width="20" height="20" patternUnits="userSpaceOnUse">
      <!-- Book Icon -->
      <path d="M2,2 L2,18 L10,15 L18,18 L18,2 L10,5 Z" fill="none" stroke="currentColor" stroke-width="0.5" />
      
      <!-- Open Book -->
      <path d="M40,10 C40,7 43,5 46,5 C49,5 52,7 52,10 L52,15 C52,12 49,10 46,10 C43,10 40,12 40,15 Z" fill="none" stroke="currentColor" stroke-width="0.5" />
      
      <!-- Globe -->
      <circle cx="70" cy="10" r="6" fill="none" stroke="currentColor" stroke-width="0.5" />
      <path d="M64,10 L76,10 M70,4 L70,16" stroke="currentColor" stroke-width="0.3" />
      <path d="M66,6 C68,8 72,8 74,6 M66,14 C68,12 72,12 74,14" stroke="currentColor" stroke-width="0.3" />
      
      <!-- Research Paper -->
      <rect x="5" y="30" width="10" height="15" fill="none" stroke="currentColor" stroke-width="0.5" />
      <line x1="7" y1="35" x2="13" y2="35" stroke="currentColor" stroke-width="0.3" />
      <line x1="7" y1="38" x2="13" y2="38" stroke="currentColor" stroke-width="0.3" />
      <line x1="7" y1="41" x2="11" y2="41" stroke="currentColor" stroke-width="0.3" />
      
      <!-- Magnifying Glass -->
      <circle cx="30" cy="35" r="5" fill="none" stroke="currentColor" stroke-width="0.5" />
      <line x1="34" y1="39" x2="38" y2="43" stroke="currentColor" stroke-width="0.8" />
      
      <!-- University Building -->
      <path d="M55,30 L65,30 L65,45 L55,45 Z" fill="none" stroke="currentColor" stroke-width="0.5" />
      <path d="M53,30 L67,30 L60,25 Z" fill="none" stroke="currentColor" stroke-width="0.5" />
      <line x1="58" y1="45" x2="58" y2="40" stroke="currentColor" stroke-width="0.5" />
      <line x1="62" y1="45" x2="62" y2="40" stroke="currentColor" stroke-width="0.5" />
      
      <!-- Compass -->
      <circle cx="80" cy="35" r="5" fill="none" stroke="currentColor" stroke-width="0.5" />
      <path d="M80,30 L80,32 M80,38 L80,40 M75,35 L77,35 M83,35 L85,35" stroke="currentColor" stroke-width="0.3" />
      <path d="M78,33 L82,37" stroke="currentColor" stroke-width="0.5" stroke-linecap="round" />
      <path d="M78,37 L80,35" stroke="currentColor" stroke-width="0.3" stroke-linecap="round" />
      
      <!-- Pencil -->
      <path d="M10,55 L15,60 L5,70 L0,65 Z" fill="none" stroke="currentColor" stroke-width="0.5" />
      <path d="M15,60 L17,58 L12,53 L10,55" fill="none" stroke="currentColor" stroke-width="0.3" />
      
      <!-- Graph -->
      <rect x="25" y="55" width="15" height="15" fill="none" stroke="currentColor" stroke-width="0.5" />
      <polyline points="25,70 30,65 35,68 40,60" fill="none" stroke="currentColor" stroke-width="0.5" />
      
      <!-- Graduation Cap -->
      <rect x="60" y="60" width="10" height="2" fill="none" stroke="currentColor" stroke-width="0.5" />
      <polygon points="55,60 65,60 75,60 65,55" fill="none" stroke="currentColor" stroke-width="0.5" />
      <line x1="65" y1="55" x2="65" y2="65" stroke="currentColor" stroke-width="0.3" />
      <path d="M65,65 C65,63 70,63 70,65" stroke="currentColor" stroke-width="0.3" fill="none" />
      
      <!-- Award/Medal -->
      <circle cx="85" cy="60" r="5" fill="none" stroke="currentColor" stroke-width="0.5" />
      <path d="M85,65 L83,70 L85,69 L87,70 L85,65" fill="none" stroke="currentColor" stroke-width="0.3" />
      <circle cx="85" cy="60" r="2" fill="none" stroke="currentColor" stroke-width="0.3" />
    </pattern>
  </defs>
  
  <rect width="100%" height="100%" fill="url(#academic-pattern)" />
</svg> 